<svg width="44" height="44" viewBox="0 0 44 44" fill="none" xmlns="http://www.w3.org/2000/svg">
<path d="M14.6666 7.33334H11C9.98744 7.33334 9.16663 8.15415 9.16663 9.16668V34.8333C9.16663 35.8459 9.98744 36.6667 11 36.6667H14.6666C15.6791 36.6667 16.5 35.8459 16.5 34.8333V9.16668C16.5 8.15415 15.6791 7.33334 14.6666 7.33334Z" stroke="black" stroke-width="2" stroke-linecap="round" stroke-linejoin="round"/>
<path d="M22 7.33334H18.3333C17.3208 7.33334 16.5 8.15415 16.5 9.16668V34.8333C16.5 35.8459 17.3208 36.6667 18.3333 36.6667H22C23.0125 36.6667 23.8333 35.8459 23.8333 34.8333V9.16668C23.8333 8.15415 23.0125 7.33334 22 7.33334Z" stroke="black" stroke-width="2" stroke-linecap="round" stroke-linejoin="round"/>
<path d="M9.16663 14.6667H16.5" stroke="black" stroke-width="2" stroke-linecap="round" stroke-linejoin="round"/>
<path d="M16.5 29.3333H23.8333" stroke="black" stroke-width="2" stroke-linecap="round" stroke-linejoin="round"/>
<path d="M25.3055 8.36001L29.3095 7.38834C30.3399 7.14084 31.3867 7.73667 31.6598 8.73034L38.434 33.33C38.5535 33.7804 38.5006 34.2591 38.2856 34.6725C38.0706 35.0859 37.709 35.4041 37.2717 35.5648L37.0278 35.64L33.0239 36.6117C31.9935 36.8592 30.9467 36.2633 30.6735 35.2697L23.8994 10.67C23.7798 10.2196 23.8328 9.7409 24.0478 9.32752C24.2628 8.91414 24.6243 8.59591 25.0617 8.43517L25.3055 8.36001V8.36001Z" stroke="black" stroke-width="2" stroke-linecap="round" stroke-linejoin="round"/>
<path d="M25.6666 16.5L33 14.6667" stroke="black" stroke-width="2" stroke-linecap="round" stroke-linejoin="round"/>
<path d="M29.3334 29.3333L36.5255 27.5367" stroke="black" stroke-width="2" stroke-linecap="round" stroke-linejoin="round"/>
</svg>
