<svg width="47" height="47" viewBox="0 0 47 47" fill="none" xmlns="http://www.w3.org/2000/svg">
<path d="M9.79171 11.75C10.8733 11.75 11.75 10.8732 11.75 9.79168C11.75 8.71012 10.8733 7.83334 9.79171 7.83334C8.71015 7.83334 7.83337 8.71012 7.83337 9.79168C7.83337 10.8732 8.71015 11.75 9.79171 11.75Z" stroke="black" stroke-width="2" stroke-linecap="round" stroke-linejoin="round"/>
<path d="M23.5 11.75C24.5815 11.75 25.4583 10.8732 25.4583 9.79168C25.4583 8.71012 24.5815 7.83334 23.5 7.83334C22.4184 7.83334 21.5416 8.71012 21.5416 9.79168C21.5416 10.8732 22.4184 11.75 23.5 11.75Z" stroke="black" stroke-width="2" stroke-linecap="round" stroke-linejoin="round"/>
<path d="M37.2083 11.75C38.2899 11.75 39.1667 10.8732 39.1667 9.79168C39.1667 8.71012 38.2899 7.83334 37.2083 7.83334C36.1268 7.83334 35.25 8.71012 35.25 9.79168C35.25 10.8732 36.1268 11.75 37.2083 11.75Z" stroke="black" stroke-width="2" stroke-linecap="round" stroke-linejoin="round"/>
<path d="M9.79171 25.4583C10.8733 25.4583 11.75 24.5815 11.75 23.5C11.75 22.4184 10.8733 21.5417 9.79171 21.5417C8.71015 21.5417 7.83337 22.4184 7.83337 23.5C7.83337 24.5815 8.71015 25.4583 9.79171 25.4583Z" stroke="black" stroke-width="2" stroke-linecap="round" stroke-linejoin="round"/>
<path d="M23.5 25.4583C24.5815 25.4583 25.4583 24.5815 25.4583 23.5C25.4583 22.4184 24.5815 21.5417 23.5 21.5417C22.4184 21.5417 21.5416 22.4184 21.5416 23.5C21.5416 24.5815 22.4184 25.4583 23.5 25.4583Z" stroke="black" stroke-width="2" stroke-linecap="round" stroke-linejoin="round"/>
<path d="M37.2083 25.4583C38.2899 25.4583 39.1667 24.5815 39.1667 23.5C39.1667 22.4184 38.2899 21.5417 37.2083 21.5417C36.1268 21.5417 35.25 22.4184 35.25 23.5C35.25 24.5815 36.1268 25.4583 37.2083 25.4583Z" stroke="black" stroke-width="2" stroke-linecap="round" stroke-linejoin="round"/>
<path d="M9.79171 39.1667C10.8733 39.1667 11.75 38.2899 11.75 37.2083C11.75 36.1268 10.8733 35.25 9.79171 35.25C8.71015 35.25 7.83337 36.1268 7.83337 37.2083C7.83337 38.2899 8.71015 39.1667 9.79171 39.1667Z" stroke="black" stroke-width="2" stroke-linecap="round" stroke-linejoin="round"/>
<path d="M23.5 39.1667C24.5815 39.1667 25.4583 38.2899 25.4583 37.2083C25.4583 36.1268 24.5815 35.25 23.5 35.25C22.4184 35.25 21.5416 36.1268 21.5416 37.2083C21.5416 38.2899 22.4184 39.1667 23.5 39.1667Z" stroke="black" stroke-width="2" stroke-linecap="round" stroke-linejoin="round"/>
<path d="M37.2083 39.1667C38.2899 39.1667 39.1667 38.2899 39.1667 37.2083C39.1667 36.1268 38.2899 35.25 37.2083 35.25C36.1268 35.25 35.25 36.1268 35.25 37.2083C35.25 38.2899 36.1268 39.1667 37.2083 39.1667Z" stroke="black" stroke-width="2" stroke-linecap="round" stroke-linejoin="round"/>
</svg>
